<mxfile host="app.diagrams.net" modified="2023-06-08T01:56:33.142Z" agent="Mozilla/5.0 (Windows NT 10.0; Win64; x64) AppleWebKit/537.36 (KHTML, like Gecko) Chrome/113.0.0.0 Safari/537.36 Edg/113.0.1774.42" version="21.1.2" etag="qUkPtpUaWJbCRb_nW3e5" type="github">
  <diagram name="第 1 页" id="P2kSCJhp3j97F-krJoTw">
    <mxGraphModel>
      <root>
        <mxCell id="0" />
        <mxCell id="1" parent="0" />
      </root>
    </mxGraphModel>
  </diagram>
</mxfile>
